<svg xmlns="http://www.w3.org/2000/svg" viewBox="0 0 720 480" role="img" aria-labelledby="title desc">
  <title id="title">Generic lithium-ion battery pack illustration</title>
  <desc id="desc">A public-safe technical illustration of a modular battery pack with cell blocks, busbars, and cooling paths.</desc>
  <defs>
    <linearGradient id="pack-bg" x1="0" x2="1" y1="0" y2="1">
      <stop offset="0" stop-color="#f7fbff"/>
      <stop offset="1" stop-color="#dfe8ff"/>
    </linearGradient>
    <linearGradient id="pack-case" x1="0" x2="1">
      <stop offset="0" stop-color="#eef4ff"/>
      <stop offset="1" stop-color="#c7d7ff"/>
    </linearGradient>
    <filter id="pack-shadow" x="-20%" y="-20%" width="140%" height="150%">
      <feDropShadow dx="0" dy="24" stdDeviation="24" flood-color="#163b8f" flood-opacity=".18"/>
    </filter>
  </defs>
  <rect width="720" height="480" rx="44" fill="url(#pack-bg)"/>
  <path d="M88 358 218 116h284l130 242H88Z" fill="#b9caf6" opacity=".45"/>
  <g filter="url(#pack-shadow)">
    <path d="M120 334h480l-58-190H178l-58 190Z" fill="url(#pack-case)" stroke="#9fb4e7" stroke-width="3"/>
    <path d="M178 144h364l-24-44H202l-24 44Z" fill="#f8fbff" stroke="#b5c4e8" stroke-width="3"/>
    <path d="M147 297h426l-35-120H182l-35 120Z" fill="#ffffff" stroke="#c9d6f4" stroke-width="2"/>
    <g fill="#e9efff" stroke="#9db4ea" stroke-width="2">
      <rect x="181" y="202" width="48" height="58" rx="10"/>
      <rect x="242" y="202" width="48" height="58" rx="10"/>
      <rect x="303" y="202" width="48" height="58" rx="10"/>
      <rect x="364" y="202" width="48" height="58" rx="10"/>
      <rect x="425" y="202" width="48" height="58" rx="10"/>
      <rect x="486" y="202" width="48" height="58" rx="10"/>
    </g>
    <path d="M198 184h320" stroke="#3157f6" stroke-width="8" stroke-linecap="round"/>
    <path d="M202 281h312" stroke="#0d9488" stroke-width="8" stroke-linecap="round"/>
    <g fill="#0d9488">
      <circle cx="214" cy="184" r="8"/>
      <circle cx="502" cy="184" r="8"/>
      <circle cx="214" cy="281" r="8"/>
      <circle cx="502" cy="281" r="8"/>
    </g>
  </g>
  <g opacity=".4" stroke="#3157f6" stroke-width="2">
    <path d="M103 118h46M571 118h46M95 384h72M548 384h78"/>
    <path d="M91 119v34M626 118v34M92 350v34M626 350v34"/>
  </g>
</svg>
